<svg xmlns:mydata="http://www.w3.org/2000/svg" mydata:contrastcolor="151f42" mydata:template="Contrast" mydata:presentation="2.5" mydata:layouttype="undefined" mydata:specialfontid="undefined" mydata:id1="990" mydata:id2="975" mydata:companyname="SF" mydata:companytagline="" version="1.1" xmlns="http://www.w3.org/2000/svg" xmlns:xlink="http://www.w3.org/1999/xlink" viewBox="0 35 550 400"><defs><linearGradient x1="222.63548" y1="235" x2="327.36452" y2="235" gradientUnits="userSpaceOnUse" id="color-19860854517"><stop offset="0" stop-color="#4568dc"></stop><stop offset="1" stop-color="#b06ab3"></stop></linearGradient></defs><g fill="url(#color-19860854517)" fill-rule="nonzero" stroke="none" stroke-width="1" stroke-linecap="butt" stroke-linejoin="miter" stroke-miterlimit="10" stroke-dasharray="" stroke-dashoffset="0" font-family="none" font-weight="none" font-size="none" text-anchor="none" style="mix-blend-mode: normal"><g data-paper-data="{&quot;isGlobalGroup&quot;:true,&quot;bounds&quot;:{&quot;x&quot;:222.63548126179563,&quot;y&quot;:192.28821784847668,&quot;width&quot;:104.72903747640873,&quot;height&quot;:85.42356430304665}}"><g data-paper-data="{&quot;isPrimaryText&quot;:true}"><path d="M222.63548,274.30493c7.06606,2.52359 14.63683,3.40685 22.08142,3.40685c13.37503,0 25.86681,-8.45403 25.86681,-22.8385c0,-12.87032 -10.4729,-18.42222 -20.44109,-24.1003l-5.93044,-3.40685c-8.32785,-4.66864 -12.49178,-10.34672 -12.49178,-17.03424c0,-8.32785 6.1828,-16.15098 15.01537,-16.15098c6.56134,0 16.0248,2.52359 16.6557,10.34672c0.12618,1.51415 1.00944,2.39741 2.39741,2.39741h0.6309v-11.7347c-6.56134,-2.01887 -13.50121,-2.90213 -20.44109,-2.90213c-12.11324,0 -22.58614,7.94931 -22.58614,20.69345c0,11.35616 9.84201,17.53896 18.42222,22.45996l6.05662,3.53303c8.07549,4.41628 14.38447,9.21111 14.38447,19.30547c0,10.59908 -8.20167,17.41278 -18.42222,17.41278c-4.41628,0 -9.08493,-1.89269 -13.12267,-4.16393c-2.77595,-1.38798 -4.79482,-4.66864 -5.04718,-7.94931c-0.12618,-1.38798 -1.13562,-2.39741 -2.52359,-2.39741h-0.50472z" data-paper-data="{&quot;glyphName&quot;:&quot;S&quot;,&quot;glyphIndex&quot;:0,&quot;firstGlyphOfWord&quot;:true,&quot;word&quot;:1}"></path><path d="M275.88326,196.19978h2.90213c3.28067,0 5.5519,2.27123 5.5519,5.67808v66.11809c0,3.28067 -2.27123,5.5519 -5.5519,5.5519h-2.90213v2.01887h26.11917v-2.01887h-3.65921c-3.28067,0 -5.5519,-2.27123 -5.5519,-5.5519v-44.91992c0,-2.01887 0.50472,-3.15449 1.51415,-3.15449c0.75708,0 1.38798,0.50472 2.39741,1.38798l15.52009,15.26773c2.39741,2.39741 4.03775,6.1828 4.03775,9.58965v0.88326h1.89269v-16.15098h-1.89269v7.06606l-23.4694,-23.09086v-12.9965c0,-3.40685 2.27123,-5.67808 5.5519,-5.67808h20.69345c3.40685,0 5.67808,2.27123 5.67808,5.67808v2.90213h2.64977v-3.40685c0,-4.29011 -2.77595,-6.93988 -7.06606,-6.93988h-44.41521z" data-paper-data="{&quot;glyphName&quot;:&quot;F&quot;,&quot;glyphIndex&quot;:1,&quot;lastGlyphOfWord&quot;:true,&quot;word&quot;:1}"></path></g></g></g></svg>